<?xml version="1.0" encoding="UTF-8"?>
<svg xmlns="http://www.w3.org/2000/svg" xmlns:xlink="http://www.w3.org/1999/xlink"
     width="1023" height="220" viewBox="0 0 1023 220">
<defs>
</defs>
<rect x="0" y="0" width="1023" height="220" fill="#FFD208" />
<svg x="111.49" y="30.25" width="405.58" height="165.54" viewBox="0 0 73.5 30" preserveAspectRatio="xMidYMid meet"><defs><clipPath id="7c984da807"><path d="M 17 7.558594 L 26 7.558594 L 26 21.347656 L 17 21.347656 Z M 17 7.558594 " clip-rule="nonzero"/></clipPath><clipPath id="8dff481bd8"><path d="M 25 7.558594 L 34 7.558594 L 34 21.347656 L 25 21.347656 Z M 25 7.558594 " clip-rule="nonzero"/></clipPath><clipPath id="6bd3878e1e"><path d="M 35 7.558594 L 39 7.558594 L 39 21.347656 L 35 21.347656 Z M 35 7.558594 " clip-rule="nonzero"/></clipPath><clipPath id="db70e1b3c9"><path d="M 38 7.558594 L 47 7.558594 L 47 21.347656 L 38 21.347656 Z M 38 7.558594 " clip-rule="nonzero"/></clipPath><clipPath id="eb62784195"><path d="M 44 7.558594 L 51 7.558594 L 51 21.347656 L 44 21.347656 Z M 44 7.558594 " clip-rule="nonzero"/></clipPath><clipPath id="2406e19430"><path d="M 56 7.558594 L 65 7.558594 L 65 21.347656 L 56 21.347656 Z M 56 7.558594 " clip-rule="nonzero"/></clipPath><clipPath id="1b38ce2e4a"><path d="M 64 7.558594 L 72.074219 7.558594 L 72.074219 21.347656 L 64 21.347656 Z M 64 7.558594 " clip-rule="nonzero"/></clipPath><clipPath id="e156e43ae1"><path d="M 1 7.558594 L 15 7.558594 L 15 10 L 1 10 Z M 1 7.558594 " clip-rule="nonzero"/></clipPath><clipPath id="3c20787571"><path d="M 50 7.558594 L 54 7.558594 L 54 21.347656 L 50 21.347656 Z M 50 7.558594 " clip-rule="nonzero"/></clipPath><clipPath id="1041195d9c"><path d="M 0.945312 19 L 15 19 L 15 21.347656 L 0.945312 21.347656 Z M 0.945312 19 " clip-rule="nonzero"/></clipPath><clipPath id="0bb5373708"><path d="M 0.945312 9 L 15 9 L 15 20 L 0.945312 20 Z M 0.945312 9 " clip-rule="nonzero"/></clipPath></defs><g clip-path="url(#7c984da807)"><path fill="#1d1d1b" d="M 17.082031 21.347656 L 22.398438 7.558594 L 25.058594 7.558594 L 20.023438 21.347656 Z M 17.082031 21.347656 " fill-opacity="1" fill-rule="nonzero"/></g><g clip-path="url(#8dff481bd8)"><path fill="#1d1d1b" d="M 25.058594 7.558594 L 27.886719 7.558594 L 33.089844 21.347656 L 30.148438 21.347656 Z M 25.058594 7.558594 " fill-opacity="1" fill-rule="nonzero"/></g><path fill="#1d1d1b" d="M 22.269531 15.195312 L 27.878906 15.195312 L 28.667969 17.335938 L 21.488281 17.335938 Z M 22.269531 15.195312 " fill-opacity="1" fill-rule="nonzero"/><g clip-path="url(#6bd3878e1e)"><path fill="#1d1d1b" d="M 35.917969 7.558594 L 38.859375 7.558594 L 38.859375 21.347656 L 35.917969 21.347656 Z M 35.917969 7.558594 " fill-opacity="1" fill-rule="nonzero"/></g><g clip-path="url(#db70e1b3c9)"><path fill="#1d1d1b" d="M 38.859375 7.558594 L 43.046875 21.347656 L 46.328125 21.347656 L 44.742188 18.769531 L 41.234375 7.558594 Z M 38.859375 7.558594 " fill-opacity="1" fill-rule="nonzero"/></g><g clip-path="url(#eb62784195)"><path fill="#1d1d1b" d="M 48.078125 7.558594 L 44.742188 18.769531 L 46.328125 21.347656 L 50.625 7.558594 Z M 48.078125 7.558594 " fill-opacity="1" fill-rule="nonzero"/></g><g clip-path="url(#2406e19430)"><path fill="#1d1d1b" d="M 56.046875 21.347656 L 61.363281 7.558594 L 64.023438 7.558594 L 58.988281 21.347656 Z M 56.046875 21.347656 " fill-opacity="1" fill-rule="nonzero"/></g><g clip-path="url(#1b38ce2e4a)"><path fill="#1d1d1b" d="M 64.023438 7.558594 L 66.851562 7.558594 L 72.054688 21.347656 L 69.113281 21.347656 Z M 64.023438 7.558594 " fill-opacity="1" fill-rule="nonzero"/></g><path fill="#1d1d1b" d="M 61.234375 15.195312 L 66.84375 15.195312 L 67.632812 17.335938 L 60.453125 17.335938 Z M 61.234375 15.195312 " fill-opacity="1" fill-rule="nonzero"/><g clip-path="url(#e156e43ae1)"><path fill="#1d1d1b" d="M 1.269531 7.558594 L 14.761719 7.558594 L 14.761719 9.855469 L 1.269531 9.855469 Z M 1.269531 7.558594 " fill-opacity="1" fill-rule="nonzero"/></g><g clip-path="url(#3c20787571)"><path fill="#1d1d1b" d="M 50.625 7.558594 L 53.566406 7.558594 L 53.566406 21.347656 L 50.625 21.347656 Z M 50.625 7.558594 " fill-opacity="1" fill-rule="nonzero"/></g><g clip-path="url(#1041195d9c)"><path fill="#1d1d1b" d="M 0.960938 19.203125 L 14.996094 19.203125 L 14.996094 21.347656 L 0.960938 21.347656 Z M 0.960938 19.203125 " fill-opacity="1" fill-rule="nonzero"/></g><g clip-path="url(#0bb5373708)"><path fill="#1d1d1b" d="M 0.960938 19.203125 L 14.761719 9.855469 L 14.761719 12.628906 L 5.171875 19.203125 Z M 0.960938 19.203125 " fill-opacity="1" fill-rule="nonzero"/></g></svg>
<path d="M553.2006673157027,67.72800000000001 L553.2006673157027,152.272" stroke="#000" stroke-width="3" stroke-linecap="square" />
<path transform="translate(600.20 106.93) scale(0.056000 -0.056000)" d="M66 0V700H506V580H198V411H482V291H198V0Z" fill="#000"/>
<path transform="translate(630.10 106.93) scale(0.056000 -0.056000)" d="M66 0V700H198V411H458V700H590V0H458V291H198V0Z" fill="#000"/>
<path transform="translate(666.84 106.93) scale(0.056000 -0.056000)" d="M66 0V700H516V580H198V413H488V293H198V120H522V0Z" fill="#000"/>
<path transform="translate(697.86 106.93) scale(0.056000 -0.056000)" d="M196 0 18 700H154L302 85H316L464 700H600L422 0Z" fill="#000"/>
<path transform="translate(732.47 106.93) scale(0.056000 -0.056000)" d="M66 0V700H311L432 90H450L571 700H816V0H688V603H670L550 0H332L212 603H194V0Z" fill="#000"/>
<path transform="translate(796.09 106.93) scale(0.056000 -0.056000)" d="M309 -14Q228 -14 166.0 15.0Q104 44 69.0 98.0Q34 152 34 228V256H164V228Q164 165 203.0 133.5Q242 102 309 102Q377 102 410.5 129.0Q444 156 444 198Q444 227 427.5 245.0Q411 263 379.5 274.5Q348 286 303 296L280 301Q208 317 156.5 341.5Q105 366 77.5 406.0Q50 446 50 510Q50 574 80.5 619.5Q111 665 166.5 689.5Q222 714 297 714Q372 714 430.5 688.5Q489 663 522.5 612.5Q556 562 556 486V456H426V486Q426 526 410.5 550.5Q395 575 366.0 586.5Q337 598 297 598Q237 598 208.5 575.5Q180 553 180 514Q180 488 193.5 470.0Q207 452 234.0 440.0Q261 428 303 419L326 414Q401 398 456.5 373.0Q512 348 543.0 307.0Q574 266 574 202Q574 138 541.5 89.5Q509 41 449.5 13.5Q390 -14 309 -14Z" fill="#000"/>
<path transform="translate(830.02 106.93) scale(0.056000 -0.056000)" d="M70 0V700H196V313H214L378 496H542L313 256L550 0H388L214 197H196V0Z" fill="#000"/>
<path transform="translate(861.61 106.93) scale(0.056000 -0.056000)" d="M70 0V496H196V0ZM133 554Q99 554 75.5 576.0Q52 598 52 634Q52 670 75.5 692.0Q99 714 133 714Q168 714 191.0 692.0Q214 670 214 634Q214 598 191.0 576.0Q168 554 133 554Z" fill="#000"/>
<path transform="translate(876.50 106.93) scale(0.056000 -0.056000)" d="M70 0V700H196V0Z" fill="#000"/>
<path transform="translate(891.40 106.93) scale(0.056000 -0.056000)" d="M70 0V700H196V0Z" fill="#000"/>
<path transform="translate(600.20 142.93) scale(0.032000 -0.032000)" d="M354 -14Q278 -14 235.5 15.0Q193 44 174 81H160V0H83V700H162V412H176Q188 435 210.0 455.5Q232 476 267.5 489.5Q303 503 354 503Q418 503 470.5 472.5Q523 442 554.0 385.5Q585 329 585 251V238Q585 160 553.5 103.0Q522 46 469.5 16.0Q417 -14 354 -14ZM333 56Q409 56 456.5 104.5Q504 153 504 240V249Q504 336 456.5 384.5Q409 433 333 433Q258 433 209.5 384.5Q161 336 161 249V240Q161 153 209.5 104.5Q258 56 333 56Z" fill="#000"/>
<path transform="translate(620.81 142.93) scale(0.032000 -0.032000)" d="M142 -200V-130H422Q451 -130 451 -100V78H437Q427 57 406.5 36.5Q386 16 353.0 3.5Q320 -9 270 -9Q217 -9 172.5 14.0Q128 37 102.5 82.0Q77 127 77 192V489H156V198Q156 126 192.5 93.0Q229 60 291 60Q361 60 406.0 106.0Q451 152 451 243V489H530V-114Q530 -154 507.5 -177.0Q485 -200 442 -200Z" fill="#000"/>
<path transform="translate(648.62 142.93) scale(0.032000 -0.032000)" d="M50 0V111L440 613V625H62V700H523V589L133 87V75H531V0Z" fill="#000"/>
<path transform="translate(666.92 142.93) scale(0.032000 -0.032000)" d="M270 -9Q217 -9 172.5 14.0Q128 37 102.5 82.5Q77 128 77 193V489H156V199Q156 126 192.5 93.0Q229 60 291 60Q361 60 406.0 106.0Q451 152 451 243V489H530V0H453V83H439Q423 48 384.0 19.5Q345 -9 270 -9Z" fill="#000"/>
<path transform="translate(686.50 142.93) scale(0.032000 -0.032000)" d="M83 0V489H160V406H174Q190 441 228.5 469.5Q267 498 342 498Q397 498 440.5 475.0Q484 452 510.0 407.0Q536 362 536 296V0H457V290Q457 363 420.5 396.0Q384 429 322 429Q251 429 206.5 383.0Q162 337 162 246V0Z" fill="#000"/>
</svg>